<svg xmlns="http://www.w3.org/2000/svg" viewBox="0 0 25 25" height="25mm" width="25mm"><path d="M5.12 6.93c3.242-4.567 9.57-5.643 14.13-2.398 4.562 3.246 5.633 9.576 2.396 14.144-3.242 4.568-9.567 5.638-14.13 2.393-4.564-3.24-5.633-9.575-2.396-14.138z" fill="#3a421d"/><path d="M5.12 6.93c3.242-4.567 9.57-5.643 14.13-2.398 4.562 3.246 5.633 9.576 2.396 14.144-3.242 4.568-9.567 5.638-14.13 2.393-4.564-3.24-5.633-9.575-2.396-14.138z" fill="none" stroke="#3a421d" stroke-width=".059" stroke-miterlimit="10"/><path d="M7.657 6.359A2.97 2.97 0 0 1 9.011 2.39a2.958 2.958 0 0 1 3.964 1.355 2.968 2.968 0 0 1-1.348 3.97 2.97 2.97 0 0 1-3.97-1.356z" fill="#fefefe"/><path d="M7.657 6.359A2.97 2.97 0 0 1 9.011 2.39a2.958 2.958 0 0 1 3.964 1.355 2.968 2.968 0 0 1-1.348 3.97 2.97 2.97 0 0 1-3.97-1.356z" fill="none" stroke="#fefefe" stroke-width=".119" stroke-miterlimit="10"/><path d="M8.302 2.638a.197.197 0 0 1-.197.201.202.202 0 0 1-.205-.2c0-.111.092-.202.205-.202.11 0 .197.09.197.201z" fill="#fefefe"/><path d="M8.302 2.638a.197.197 0 0 1-.197.201.202.202 0 0 1-.205-.2c0-.111.092-.202.205-.202.11 0 .197.09.197.201z" fill="none" stroke="#fefefe" stroke-width=".059" stroke-miterlimit="10"/><path d="M1.488 13.202a3.204 3.204 0 0 1 1.46-4.29 3.205 3.205 0 0 1 4.285 1.465 3.205 3.205 0 0 1-1.464 4.285 3.193 3.193 0 0 1-4.28-1.46z" fill="#fefefe"/><path d="M1.488 13.202a3.204 3.204 0 0 1 1.46-4.29 3.205 3.205 0 0 1 4.285 1.465 3.205 3.205 0 0 1-1.464 4.285 3.193 3.193 0 0 1-4.28-1.46z" fill="none" stroke="#fefefe" stroke-width=".119" stroke-miterlimit="10"/><path d="M2.679 13.801a2.631 2.631 0 0 1-.34-3.698 2.631 2.631 0 0 1 3.7-.338 2.632 2.632 0 0 1 .338 3.697 2.624 2.624 0 0 1-3.698.34z" fill="#74161b"/><text y="42.445" x="142.598" transform="matrix(.9997 0 0 1.0003 -128.482 -21.786)" style="-inkscape-font-specification:Arial-BoldMT" font-weight="700" font-size="17.374" font-family="Arial" fill="#fefefe" stroke-width=".061"><tspan x="142.598" y="42.445">F</tspan></text><path d="M17.864 20.672V15.38h5.185V13.28h-5.185v-2.947h6.008V8.226h-8.518v12.446z" fill="none" stroke="#fefefe" stroke-width=".059" stroke-miterlimit="10"/></svg>