<svg width="25mm" height="25mm" version="1.1" viewBox="0 0 25 25" xmlns="http://www.w3.org/2000/svg">
 <path d="m5.12 6.93c3.242-4.567 9.57-5.643 14.13-2.398 4.562 3.246 5.633 9.576 2.396 14.144-3.242 4.568-9.567 5.638-14.13 2.393-4.564-3.24-5.633-9.575-2.396-14.138z" fill="#4b4b1b"/>
 <path d="m5.12 6.93c3.242-4.567 9.57-5.643 14.13-2.398 4.562 3.246 5.633 9.576 2.396 14.144-3.242 4.568-9.567 5.638-14.13 2.393-4.564-3.24-5.633-9.575-2.396-14.138z" fill="none" stroke="#3a421d" stroke-miterlimit="10" stroke-width=".059"/>
 <path d="M7.657 6.359A2.97 2.97 0 0 1 9.011 2.39a2.958 2.958 0 0 1 3.964 1.355 2.968 2.968 0 0 1-1.348 3.97 2.97 2.97 0 0 1-3.97-1.356z" fill="#fefefe"/>
 <path d="M7.657 6.359A2.97 2.97 0 0 1 9.011 2.39a2.958 2.958 0 0 1 3.964 1.355 2.968 2.968 0 0 1-1.348 3.97 2.97 2.97 0 0 1-3.97-1.356z" fill="none" stroke="#fefefe" stroke-miterlimit="10" stroke-width=".119"/>
 <path d="M8.302 2.638a.197.197 0 0 1-.197.201.202.202 0 0 1-.205-.2c0-.111.092-.202.205-.202.11 0 .197.09.197.201z" fill="#fefefe"/>
 <path d="M8.302 2.638a.197.197 0 0 1-.197.201.202.202 0 0 1-.205-.2c0-.111.092-.202.205-.202.11 0 .197.09.197.201z" fill="none" stroke="#fefefe" stroke-miterlimit="10" stroke-width=".059"/>
 <path d="m1.488 13.202a3.204 3.204 0 0 1 1.46-4.29 3.205 3.205 0 0 1 4.285 1.465 3.205 3.205 0 0 1-1.464 4.285 3.193 3.193 0 0 1-4.28-1.46z" fill="#fefefe"/>
 <path d="m1.488 13.202a3.204 3.204 0 0 1 1.46-4.29 3.205 3.205 0 0 1 4.285 1.465 3.205 3.205 0 0 1-1.464 4.285 3.193 3.193 0 0 1-4.28-1.46z" fill="none" stroke="#fefefe" stroke-miterlimit="10" stroke-width=".119"/>
 <path d="M2.679 13.801a2.631 2.631 0 0 1-.34-3.698 2.631 2.631 0 0 1 3.7-.338 2.632 2.632 0 0 1 .338 3.697 2.624 2.624 0 0 1-3.698.34z" fill="#7e1711"/>
 <text transform="matrix(.9997 0 0 1.0003 -128.48 -21.786)" x="142.598" y="42.445" fill="#fefefe" font-family="Arial" font-size="17.374" font-weight="700" stroke-width=".061">
  <tspan x="142.598" y="42.445">F</tspan>
 </text>
 <path d="M17.864 20.672V15.38h5.185V13.28h-5.185v-2.947h6.008V8.226h-8.518v12.446z" fill="none" stroke="#fefefe" stroke-miterlimit="10" stroke-width=".059"/>
</svg>
