<svg width="25mm" height="25mm" version="1.1" viewBox="0 0 25 25" xmlns="http://www.w3.org/2000/svg"><path transform="scale(.26458)" d="m51.516 10.055c-1.857-0.043172-3.7108 0.064622-5.5488 0.28906a11.18 11.18 0 0 1 3.0723 3.8105 11.218 11.218 0 0 1-5.0938 15.004 11.225 11.225 0 0 1-15.006-5.125 11.225 11.225 0 0 1-1.0117-6.5566c0.66626-0.48926 1.3451-0.95613 2.0371-1.3984-4.0411 2.5814-7.6663 5.9618-10.613 10.113v0.003906c-1.4265 2.0108-2.6225 4.1155-3.6113 6.2793a12.113 12.113 0 0 1 11.598 6.7461 12.113 12.113 0 0 1-5.5332 16.195 12.068 12.068 0 0 1-8.7168 0.74609c1.8919 9.151 7.1036 17.637 15.318 23.469 17.246 12.265 41.153 8.22 53.406-9.0449 12.234-17.265 8.1856-41.189-9.0566-53.457-6.463-4.5992-13.865-6.9028-21.24-7.0742zm-6.0645 0.35547c-0.50101 0.068056-1.0001 0.1447-1.498 0.23242 0.49782-0.08781 0.99707-0.16434 1.498-0.23242zm-2.3086 0.38477c-0.52016 0.10318-1.0371 0.21717-1.5527 0.3418 0.51531-0.12475 1.0329-0.23853 1.5527-0.3418zm-2.332 0.53711c-0.51434 0.13573-1.0245 0.28431-1.5332 0.44141 0.5083-0.15724 1.0193-0.30554 1.5332-0.44141zm-2.2637 0.67188c-0.52546 0.1738-1.0462 0.36194-1.5645 0.55859 0.5179-0.19688 1.0393-0.38458 1.5645-0.55859zm-2.2539 0.82422c-0.54624 0.21942-1.0863 0.45625-1.623 0.70117 0.53679-0.24534 1.0767-0.48136 1.623-0.70117zm-2.1484 0.93945c-0.64069 0.30411-1.2715 0.62819-1.8965 0.96875 0.62444-0.34068 1.2564-0.66443 1.8965-0.96875zm-2.0879 1.0703c-0.68929 0.38072-1.3695 0.78214-2.0371 1.207 0.66741-0.42501 1.3482-0.82607 2.0371-1.207z" fill="#4b4b1b"/><path d="M2.679 13.801a2.631 2.631 0 0 1-.34-3.698 2.631 2.631 0 0 1 3.7-.338 2.632 2.632 0 0 1 .338 3.697 2.624 2.624 0 0 1-3.698.34z" fill="#7e1711"/><path transform="scale(.26458)" d="m58.037 31.111v47.018h9.4883v-19.98h19.617v-7.9551h-19.617v-11.129h20.189c-0.68542-2.7403-1.6692-5.4093-2.9492-7.9531h-26.729z" fill="#fefefe" stroke-width=".23055"/></svg>
